<svg xmlns="http://www.w3.org/2000/svg" width="256" height="256"><path fill-opacity=".016" d="M0 128.004v128.004l128.25-.254 128.25-.254.254-127.75L257.008 0H0v128.004m.485.496c0 70.4.119 99.053.265 63.672.146-35.38.146-92.98 0-128C.604 29.153.485 58.1.485 128.5" fill="#1976D2" fill-rule="evenodd"/><path fill-opacity=".315" d="M116.445 21.251A12302.852 12302.852 0 01100.463 46c-2.322 3.575-13.325 20.675-24.45 38s-21.703 33.75-23.508 36.5C37.462 143.426 0 201.981 0 202.567c0 .238 14.627.433 32.504.433h32.503l14.747 11.798C117.712 245.169 126.622 252 128.274 252c.978 0 8.179-5.089 16.002-11.309 19.838-15.772 42.674-33.837 46.109-36.475 2.84-2.181 3.384-2.216 34.75-2.216 17.526 0 31.865-.288 31.865-.64 0-.352-.625-1.139-1.389-1.75-.764-.61-10.51-15.285-21.658-32.61a128463.258 128463.258 0 00-86.225-133.749l-19.523-30.25-11.76 18.25" fill="#1976D2" fill-rule="evenodd"/><path fill-opacity=".151" d="M123.862 10.281c-2.552 3.97-15.66 24.319-29.131 45.219-13.47 20.9-36.213 56.225-50.541 78.5-14.327 22.275-30.073 46.688-34.991 54.25L.258 202h31.648c28.255 0 31.914.184 34.121 1.713 2.79 1.934 42.661 33.478 53.639 42.438 3.942 3.217 7.661 5.849 8.264 5.849.604 0 3.475-1.912 6.379-4.25 2.905-2.338 15.805-12.575 28.667-22.75 12.862-10.175 24.627-19.625 26.144-21l2.758-2.5-2.942-9.5c-1.618-5.225-3.391-10.4-3.94-11.5-.548-1.1-3.446-9.875-6.438-19.5-11.635-37.42-16.706-53.559-17.284-55a60.42 60.42 0 01-.771-2c-.094-.275-.647-1.639-1.229-3.031-.582-1.392-3.174-9.717-5.761-18.5s-5.062-16.419-5.502-16.969c-.439-.55-3.144-8.875-6.011-18.5s-5.557-17.95-5.977-18.5c-.71-.929-6.453-19.868-7.193-23.719-.218-1.134-1.909.739-4.968 5.5" fill="#1976D2" fill-rule="evenodd"/><path fill-opacity=".705" d="M110.374 31.985A39709.694 39709.694 0 0072.033 91.5c-11.669 18.15-22.699 35.25-24.511 38C32.235 152.691 2 200.169 2 200.982 2 201.651 12.761 202 33.376 202h31.377l17.357 13.75c9.547 7.563 23.665 18.77 31.374 24.905l14.016 11.154.258-61.982c.141-34.09.141-89.516 0-123.17L127.5 5.47l-17.126 26.515" fill="#1976D2" fill-rule="evenodd"/></svg>